<?xml version="1.0" standalone="no"?>
<svg viewBox="0 0 200 200" xmlns="http://www.w3.org/2000/svg">
  <path fill="#8A3FFC" d="M49.5,-76.9C63.1,-68.3,72.3,-52.8,79.2,-36.5C86,-20.3,90.6,-3.3,88.3,12.7C85.9,28.7,76.8,43.6,65.3,56.2C53.8,68.8,40,78.9,24.6,83.3C9.1,87.7,-7.9,86.2,-23.9,81.4C-39.8,76.7,-54.8,68.5,-67,56.7C-79.2,45,-88.7,29.5,-92,12.7C-95.2,-4.1,-92.1,-22.4,-84.7,-38.7C-77.3,-55,-65.5,-69.3,-50.7,-77.2C-35.8,-85.2,-17.9,-86.8,0,-86.9C18,-86.9,36,-85.4,49.5,-76.9Z" transform="translate(100 100)" />
</svg>
