<?xml version="1.0" encoding="UTF-8" standalone="no"?>
<!DOCTYPE svg PUBLIC "-//W3C//DTD SVG 1.1//EN" "http://www.w3.org/Graphics/SVG/1.1/DTD/svg11.dtd">
<svg width="100%" height="100%" viewBox="0 0 412 234" version="1.1" xmlns="http://www.w3.org/2000/svg" xmlns:xlink="http://www.w3.org/1999/xlink" xml:space="preserve" xmlns:serif="http://www.serif.com/" style="fill-rule:evenodd;clip-rule:evenodd;stroke-linejoin:round;stroke-miterlimit:2;">
    <g transform="matrix(0.666667,0,0,0.666667,0,0)">
        <g transform="matrix(46.2963,0,0,46.2963,0,0)">
            <g id="blob--3-.svg" serif:id="blob (3).svg" transform="matrix(-0.0312002,-0.0335997,0.0335997,-0.0312002,5.8104,3.1968)">
                <g transform="matrix(1,0,0,1,-100,-100)">
                    <g transform="matrix(1,0,0,1,100,100)">
                        <path d="M18.4,-33.1C27.8,-22.6 42,-24.1 55,-18.4C68,-12.7 79.8,0.2 74.3,7.8C68.8,15.4 45.9,17.7 34.7,29.2C23.4,40.7 23.8,61.5 16.4,70.3C9,79.1 -6.2,75.9 -21.4,71.9C-36.5,67.8 -51.6,62.8 -60.2,52.4C-68.8,42.1 -70.8,26.3 -67.2,13.2C-63.6,0.1 -54.4,-10.3 -49.4,-23.2C-44.4,-36.1 -43.7,-51.5 -36.2,-62.8C-28.7,-74.2 -14.3,-81.5 -4.9,-73.8C4.5,-66.2 9.1,-43.7 18.4,-33.1Z" style="fill:rgb(255,0,102);fill-rule:nonzero;"/>
                    </g>
                </g>
            </g>
            <g id="blob--4-.svg" serif:id="blob (4).svg" transform="matrix(0.00704074,0.00476313,-0.00476313,0.00704074,2.88679,3.59959)">
                <g transform="matrix(1,0,0,1,-100,-100)">
                    <g transform="matrix(1,0,0,1,100,100)">
                        <path d="M43.9,-32C55.6,-20.2 63.1,-2.1 58.9,12.3C54.7,26.8 39,37.4 21,47.7C3,57.9 -17.2,67.7 -25.7,60.7C-34.2,53.8 -31.1,30.1 -30.9,12.4C-30.7,-5.3 -33.4,-17 -28.7,-27.1C-24,-37.3 -12,-45.8 2,-47.5C16.1,-49.1 32.1,-43.7 43.9,-32Z" style="fill:rgb(255,0,102);fill-rule:nonzero;"/>
                    </g>
                </g>
            </g>
            <g id="blob--2-.svg" serif:id="blob (2).svg" transform="matrix(0.0053428,0.00665202,-0.00665202,0.0053428,10.9404,1.2204)">
                <g transform="matrix(1,0,0,1,-100,-100)">
                    <g transform="matrix(1,0,0,1,100,100)">
                        <path d="M44.4,-45.9C48.3,-40.6 35.7,-20.3 34.6,-1C33.6,18.2 44.1,36.4 40.3,44.4C36.4,52.5 18.2,50.3 2.1,48.1C-13.9,46 -27.8,43.9 -31.9,35.8C-35.9,27.8 -30,13.9 -33.8,-3.8C-37.5,-21.4 -50.9,-42.9 -46.9,-48.2C-42.9,-53.6 -21.4,-42.8 -0.6,-42.3C20.3,-41.7 40.6,-51.3 44.4,-45.9Z" style="fill:rgb(255,0,102);fill-rule:nonzero;"/>
                    </g>
                </g>
            </g>
            <g id="blob--5-.svg" serif:id="blob (5).svg" transform="matrix(0.004968,0,0,0.004968,7.86239,5.9832)">
                <g transform="matrix(1,0,0,1,-100,-100)">
                    <g transform="matrix(1,0,0,1,100,100)">
                        <path d="M47.2,-38C61.2,-20.1 72.6,-0.5 70.4,18.9C68.3,38.3 52.5,57.4 31.5,68.9C10.4,80.4 -16,84.3 -38,75.2C-60,66 -77.6,43.9 -81.1,20.8C-84.6,-2.4 -74,-26.5 -58.2,-44.9C-42.3,-63.2 -21.1,-75.9 -2.3,-74.1C16.6,-72.2 33.2,-56 47.2,-38Z" style="fill:rgb(255,0,102);fill-rule:nonzero;"/>
                    </g>
                </g>
            </g>
        </g>
    </g>
</svg>
