<?xml version="1.0" encoding="UTF-8" standalone="no"?>
<!DOCTYPE svg PUBLIC "-//W3C//DTD SVG 1.1//EN" "http://www.w3.org/Graphics/SVG/1.1/DTD/svg11.dtd">
<svg width="100%" height="100%" viewBox="0 0 412 234" version="1.1" xmlns="http://www.w3.org/2000/svg" xmlns:xlink="http://www.w3.org/1999/xlink" xml:space="preserve" xmlns:serif="http://www.serif.com/" style="fill-rule:evenodd;clip-rule:evenodd;stroke-linejoin:round;stroke-miterlimit:2;">
    <g transform="matrix(0.666667,0,0,0.666667,0,0)">
        <g transform="matrix(46.2963,0,0,46.2963,0,0)">
            <g id="blob--24-.svg" serif:id="blob (24).svg" transform="matrix(0.049788,0,0,0.049788,5.3892,3.3588)">
                <g transform="matrix(1,0,0,1,-100,-100)">
                    <g transform="matrix(1,0,0,1,100,100)">
                        <path d="M55.6,-49C70.4,-40.9 79.5,-20.4 78.1,-1.4C76.8,17.7 65,35.4 50.2,43.3C35.4,51.1 17.7,49.1 0.8,48.2C-16.1,47.4 -32.2,47.8 -37.3,40C-42.4,32.2 -36.6,16.1 -34.4,2.2C-32.2,-11.7 -33.6,-23.3 -28.5,-31.4C-23.3,-39.6 -11.7,-44.1 4.4,-48.5C20.4,-52.9 40.9,-57.1 55.6,-49Z" style="fill:rgb(138,63,252);fill-rule:nonzero;"/>
                    </g>
                </g>
            </g>
            <g id="blob--15-.svg" serif:id="blob (15).svg" transform="matrix(0.00462302,-0.00600245,0.00600245,0.00462302,2.27215,5.83614)">
                <g transform="matrix(1,0,0,1,-100,-100)">
                    <g transform="matrix(1,0,0,1,100,100)">
                        <path d="M42.8,-42.9C57,-28.7 70.9,-14.4 70.7,-0.2C70.5,14 56.3,28 42.1,32.7C28,37.4 14,32.7 -0.1,32.8C-14.2,32.9 -28.4,37.8 -37.6,33.1C-46.7,28.4 -50.8,14.2 -49.7,1.1C-48.6,-12.1 -42.4,-24.1 -33.3,-38.3C-24.1,-52.4 -12.1,-68.7 1.1,-69.8C14.4,-71 28.7,-57 42.8,-42.9Z" style="fill:rgb(138,63,252);fill-rule:nonzero;"/>
                    </g>
                </g>
            </g>
            <g id="blob--17-.svg" serif:id="blob (17).svg" transform="matrix(-0.0101549,-0.0159811,0.0159811,-0.0101549,10.8,1.4472)">
                <g transform="matrix(1,0,0,1,-100,-100)">
                    <g transform="matrix(1,0,0,1,100,100)">
                        <path d="M21.5,-10.7C35.7,-7.4 60.2,-3.7 64.9,4.6C69.5,13 54.3,26 40.1,27.4C26,28.7 13,18.4 6.2,12.3C-0.6,6.1 -1.3,4 -1.4,2.6C-1.6,1.3 -1.3,0.6 -7,-5.7C-12.7,-12 -24.4,-24.1 -24.2,-27.4C-24.1,-30.7 -12,-25.4 -4.2,-21.2C3.7,-17.1 7.4,-14.1 21.5,-10.7Z" style="fill:rgb(138,63,252);fill-rule:nonzero;"/>
                    </g>
                </g>
            </g>
        </g>
    </g>
</svg>
